REM DIRINDEX 1\2,1\3,1\4,1\5\6,1\5\7,1\8
REM DIRNAME folder01,folder02,folder03,folder04,folder05,folder06,folder07,folder08
TITLE ""
FILE "053 Åy053ÅzUnit3 (0601 oppress_0612 discriminate).mp3" MP3
  TRACK 01 AUDIO
    TITLE "0:"
    INDEX 01 00:00:00
  TRACK 02 AUDIO
    TITLE "2:cjc115_2032"
    INDEX 01 00:00:07
  TRACK 03 AUDIO
    TITLE "0:"
    INDEX 01 00:01:21
  TRACK 04 AUDIO
    TITLE "3:cjc115_2033"
    INDEX 01 00:01:34
  TRACK 05 AUDIO
    TITLE "0:"
    INDEX 01 00:03:70
  TRACK 06 AUDIO
    TITLE "4:cjc115_2034"
    INDEX 01 00:04:09
  TRACK 07 AUDIO
    TITLE "0:"
    INDEX 01 00:06:55
  TRACK 08 AUDIO
    TITLE "2:cjc115_2035"
    INDEX 01 00:07:68
  TRACK 09 AUDIO
    TITLE "0:"
    INDEX 01 00:09:16
  TRACK 10 AUDIO
    TITLE "3:cjc115_2036"
    INDEX 01 00:09:32
  TRACK 11 AUDIO
    TITLE "0:"
    INDEX 01 00:11:48
  TRACK 12 AUDIO
    TITLE "4:cjc115_2037"
    INDEX 01 00:11:60
  TRACK 13 AUDIO
    TITLE "0:"
    INDEX 01 00:15:36
  TRACK 14 AUDIO
    TITLE "2:cjc115_2038"
    INDEX 01 00:16:51
  TRACK 15 AUDIO
    TITLE "0:"
    INDEX 01 00:17:57
  TRACK 16 AUDIO
    TITLE "3:cjc115_2039"
    INDEX 01 00:18:01
  TRACK 17 AUDIO
    TITLE "0:"
    INDEX 01 00:20:67
  TRACK 18 AUDIO
    TITLE "4:cjc115_2040"
    INDEX 01 00:20:73
  TRACK 19 AUDIO
    TITLE "0:"
    INDEX 01 00:24:27
  TRACK 20 AUDIO
    TITLE "2:cjc115_2041"
    INDEX 01 00:25:39
  TRACK 21 AUDIO
    TITLE "0:"
    INDEX 01 00:26:52
  TRACK 22 AUDIO
    TITLE "3:cjc115_2042"
    INDEX 01 00:26:66
  TRACK 23 AUDIO
    TITLE "0:"
    INDEX 01 00:27:61
  TRACK 24 AUDIO
    TITLE "4:cjc115_2043"
    INDEX 01 00:27:69
  TRACK 25 AUDIO
    TITLE "0:"
    INDEX 01 00:31:24
  TRACK 26 AUDIO
    TITLE "2:cjc115_2044"
    INDEX 01 00:32:39
  TRACK 27 AUDIO
    TITLE "0:"
    INDEX 01 00:33:73
  TRACK 28 AUDIO
    TITLE "3:cjc115_2045"
    INDEX 01 00:34:10
  TRACK 29 AUDIO
    TITLE "0:"
    INDEX 01 00:35:66
  TRACK 30 AUDIO
    TITLE "4:cjc115_2046"
    INDEX 01 00:36:05
  TRACK 31 AUDIO
    TITLE "0:"
    INDEX 01 00:40:72
  TRACK 32 AUDIO
    TITLE "2:cjc115_2047"
    INDEX 01 00:42:08
  TRACK 33 AUDIO
    TITLE "0:"
    INDEX 01 00:43:15
  TRACK 34 AUDIO
    TITLE "3:cjc115_2048"
    INDEX 01 00:43:31
  TRACK 35 AUDIO
    TITLE "0:"
    INDEX 01 00:44:36
  TRACK 36 AUDIO
    TITLE "4:cjc115_2049"
    INDEX 01 00:44:50
  TRACK 37 AUDIO
    TITLE "0:"
    INDEX 01 00:47:34
  TRACK 38 AUDIO
    TITLE "2:cjc115_2050"
    INDEX 01 00:48:48
  TRACK 39 AUDIO
    TITLE "0:"
    INDEX 01 00:49:69
  TRACK 40 AUDIO
    TITLE "3:cjc115_2051"
    INDEX 01 00:50:09
  TRACK 41 AUDIO
    TITLE "0:"
    INDEX 01 00:52:45
  TRACK 42 AUDIO
    TITLE "4:cjc115_2052"
    INDEX 01 00:52:59
  TRACK 43 AUDIO
    TITLE "0:"
    INDEX 01 00:57:03
  TRACK 44 AUDIO
    TITLE "2:cjc115_2053"
    INDEX 01 00:58:18
  TRACK 45 AUDIO
    TITLE "0:"
    INDEX 01 00:59:34
  TRACK 46 AUDIO
    TITLE "3:cjc115_2054"
    INDEX 01 00:59:47
  TRACK 47 AUDIO
    TITLE "0:"
    INDEX 01 01:01:03
  TRACK 48 AUDIO
    TITLE "4:cjc115_2055"
    INDEX 01 01:01:17
  TRACK 49 AUDIO
    TITLE "0:"
    INDEX 01 01:04:21
  TRACK 50 AUDIO
    TITLE "2:cjc115_2056"
    INDEX 01 01:05:38
  TRACK 51 AUDIO
    TITLE "0:"
    INDEX 01 01:06:45
  TRACK 52 AUDIO
    TITLE "3:cjc115_2057"
    INDEX 01 01:06:61
  TRACK 53 AUDIO
    TITLE "0:"
    INDEX 01 01:09:09
  TRACK 54 AUDIO
    TITLE "4:cjc115_2058"
    INDEX 01 01:09:20
  TRACK 55 AUDIO
    TITLE "0:"
    INDEX 01 01:13:30
  TRACK 56 AUDIO
    TITLE "2:cjc115_2059"
    INDEX 01 01:14:43
  TRACK 57 AUDIO
    TITLE "0:"
    INDEX 01 01:15:46
  TRACK 58 AUDIO
    TITLE "3:cjc115_2060"
    INDEX 01 01:15:58
  TRACK 59 AUDIO
    TITLE "0:"
    INDEX 01 01:18:09
  TRACK 60 AUDIO
    TITLE "4:cjc115_2061"
    INDEX 01 01:18:21
  TRACK 61 AUDIO
    TITLE "0:"
    INDEX 01 01:21:43
  TRACK 62 AUDIO
    TITLE "2:cjc115_2062"
    INDEX 01 01:22:54
  TRACK 63 AUDIO
    TITLE "0:"
    INDEX 01 01:24:00
  TRACK 64 AUDIO
    TITLE "3:cjc115_2063"
    INDEX 01 01:24:16
  TRACK 65 AUDIO
    TITLE "0:"
    INDEX 01 01:26:27
  TRACK 66 AUDIO
    TITLE "4:cjc115_2064"
    INDEX 01 01:26:40
  TRACK 67 AUDIO
    TITLE "0:"
    INDEX 01 01:31:49
  TRACK 68 AUDIO
    TITLE "2:cjc115_2065"
    INDEX 01 01:32:62
  TRACK 69 AUDIO
    TITLE "0:"
    INDEX 01 01:34:03
  TRACK 70 AUDIO
    TITLE "3:cjc115_2066"
    INDEX 01 01:34:14
  TRACK 71 AUDIO
    TITLE "0:"
    INDEX 01 01:35:37
  TRACK 72 AUDIO
    TITLE "4:cjc115_2067"
    INDEX 01 01:35:51
  TRACK 73 AUDIO
    TITLE "0:"
    INDEX 01 01:39:66
